<svg fill="currentColor" width="35px" height="35px" viewBox="0 0 24 24" xmlns="http://www.w3.org/2000/svg"><g id="SVGRepo_bgCarrier" stroke-width="0"></g><g id="SVGRepo_tracerCarrier" stroke-linecap="round" stroke-linejoin="round"></g><g id="SVGRepo_iconCarrier"><path d="M22,5V7a1,1,0,0,1-1,1H15a1,1,0,0,1-1-1H4v5H14a1,1,0,0,1,1-1h6a1,1,0,0,1,1,1v2a1,1,0,0,1-1,1H15a1,1,0,0,1-1-1H4v5H14a1,1,0,0,1,1-1h6a1,1,0,0,1,1,1v2a1,1,0,0,1-1,1H15a1,1,0,0,1-1-1H3a1,1,0,0,1-1-1V3A1,1,0,0,1,4,3V5H14a1,1,0,0,1,1-1h6A1,1,0,0,1,22,5Z"></path></g></svg>